<svg id="visual" viewBox="0 0 960 540" width="960" height="540" xmlns="http://www.w3.org/2000/svg" xmlns:xlink="http://www.w3.org/1999/xlink" version="1.1"><rect x="0" y="0" width="960" height="540" fill="#161623"></rect><path d="M0 346L22.8 347.2C45.7 348.3 91.3 350.7 137 350.8C182.7 351 228.3 349 274 355.2C319.7 361.3 365.3 375.7 411.2 390.8C457 406 503 422 548.8 423.3C594.7 424.7 640.3 411.3 686 408.3C731.7 405.3 777.3 412.7 823 412.8C868.7 413 914.3 406 937.2 402.5L960 399L960 541L937.2 541C914.3 541 868.7 541 823 541C777.3 541 731.7 541 686 541C640.3 541 594.7 541 548.8 541C503 541 457 541 411.2 541C365.3 541 319.7 541 274 541C228.3 541 182.7 541 137 541C91.3 541 45.7 541 22.8 541L0 541Z" fill="#6600FF" stroke-linecap="round" stroke-linejoin="miter"></path></svg>